<svg xmlns="http://www.w3.org/2000/svg" xmlns:xlink="http://www.w3.org/1999/xlink" version="1.1" class="marks" width="734" height="699" viewBox="0 0 734 699"><g fill="none" stroke-miterlimit="10" transform="translate(36,47)"><g class="mark-group role-frame root" role="graphics-object" aria-roledescription="group mark container"><g transform="translate(0,0)"><path class="background" aria-hidden="true" d="M0.5,0.5h600v600h-600Z"/><g><g class="mark-group role-axis" aria-hidden="true"><g transform="translate(0.5,0.5)"><path class="background" aria-hidden="true" d="M0,0h0v0h0Z" pointer-events="none"/><g><g class="mark-rule role-axis-grid" pointer-events="none"><line transform="translate(0,600)" x2="600" y2="0" stroke="#EDEBE9" stroke-width="1" stroke-dasharray="3,3" opacity="1"/><line transform="translate(0,433)" x2="600" y2="0" stroke="#EDEBE9" stroke-width="1" stroke-dasharray="3,3" opacity="1"/><line transform="translate(0,267)" x2="600" y2="0" stroke="#EDEBE9" stroke-width="1" stroke-dasharray="3,3" opacity="1"/><line transform="translate(0,100)" x2="600" y2="0" stroke="#EDEBE9" stroke-width="1" stroke-dasharray="3,3" opacity="1"/></g></g><path class="foreground" aria-hidden="true" d="" pointer-events="none" display="none"/></g></g><g class="mark-group role-axis" role="graphics-symbol" aria-roledescription="axis" aria-label="X-axis for a time scale with values from 2023 to 2026"><g transform="translate(0.5,600.5)"><path class="background" aria-hidden="true" d="M0,0h0v0h0Z" pointer-events="none"/><g><g class="mark-rule role-axis-tick" pointer-events="none"><line transform="translate(0,0)" x2="0" y2="0" stroke="#C8C6C4" stroke-width="1" opacity="1"/><line transform="translate(200,0)" x2="0" y2="0" stroke="#C8C6C4" stroke-width="1" opacity="1"/><line transform="translate(400,0)" x2="0" y2="0" stroke="#C8C6C4" stroke-width="1" opacity="1"/><line transform="translate(600,0)" x2="0" y2="0" stroke="#C8C6C4" stroke-width="1" opacity="1"/></g><g class="mark-text role-axis-label" pointer-events="none"><text text-anchor="start" transform="translate(0,15)" font-family="Segoe UI" font-size="11px" fill="#605E5C" opacity="1">2023</text><text text-anchor="middle" transform="translate(199.8175182481752,15)" font-family="Segoe UI" font-size="11px" fill="#605E5C" opacity="1">2024</text><text text-anchor="middle" transform="translate(400.1824817518248,15)" font-family="Segoe UI" font-size="11px" fill="#605E5C" opacity="1">2025</text><text text-anchor="end" transform="translate(600,15)" font-family="Segoe UI" font-size="11px" fill="#605E5C" opacity="1">2026</text></g><g class="mark-rule role-axis-domain" pointer-events="none"><line transform="translate(0,0)" x2="600" y2="0" stroke="#C8C6C4" stroke-width="1" opacity="1"/></g></g><path class="foreground" aria-hidden="true" d="" pointer-events="none" display="none"/></g></g><g class="mark-group role-axis" role="graphics-symbol" aria-roledescription="axis" aria-label="Y-axis for a linear scale with values from 0 to 180"><g transform="translate(0.5,0.5)"><path class="background" aria-hidden="true" d="M0,0h0v0h0Z" pointer-events="none"/><g><g class="mark-rule role-axis-tick" pointer-events="none"><line transform="translate(0,600)" x2="0" y2="0" stroke="#C8C6C4" stroke-width="1" opacity="1"/><line transform="translate(0,433)" x2="0" y2="0" stroke="#C8C6C4" stroke-width="1" opacity="1"/><line transform="translate(0,267)" x2="0" y2="0" stroke="#C8C6C4" stroke-width="1" opacity="1"/><line transform="translate(0,100)" x2="0" y2="0" stroke="#C8C6C4" stroke-width="1" opacity="1"/></g><g class="mark-text role-axis-label" pointer-events="none"><text text-anchor="end" transform="translate(-6,603)" font-family="Segoe UI" font-size="11px" fill="#605E5C" opacity="1">0</text><text text-anchor="end" transform="translate(-6,436.3333333333333)" font-family="Segoe UI" font-size="11px" fill="#605E5C" opacity="1">50</text><text text-anchor="end" transform="translate(-6,269.66666666666663)" font-family="Segoe UI" font-size="11px" fill="#605E5C" opacity="1">100</text><text text-anchor="end" transform="translate(-6,102.99999999999997)" font-family="Segoe UI" font-size="11px" fill="#605E5C" opacity="1">150</text></g></g><path class="foreground" aria-hidden="true" d="" pointer-events="none" display="none"/></g></g><g class="mark-group role-scope layer_0_pathgroup" role="graphics-object" aria-roledescription="group mark container"><g transform="translate(0,0)"><path class="background" aria-hidden="true" d="M0,0h600v600h-600Z"/><g><g class="mark-line role-mark layer_0_marks" role="graphics-object" aria-roledescription="line mark container"><path aria-label="Period: 2023; Amount: 100; Series: Output" role="graphics-symbol" aria-roledescription="line mark" d="M0,266.667C66.606,248.313,133.212,229.959,199.818,206.667C266.606,183.31,333.394,151.696,400.182,126.667C466.788,101.705,533.394,79.186,600,56.667" stroke="#CE143D" stroke-width="2.4"/></g></g><path class="foreground" aria-hidden="true" d="" display="none"/></g><g transform="translate(0,0)"><path class="background" aria-hidden="true" d="M0,0h600v600h-600Z"/><g><g class="mark-line role-mark layer_0_marks" role="graphics-object" aria-roledescription="line mark container"><path aria-label="Period: 2023; Amount: 100; Series: Headcount" role="graphics-symbol" aria-roledescription="line mark" d="M0,266.667C66.606,261.666,133.212,256.665,199.818,253.333C266.606,249.992,333.394,248.892,400.182,246.667C466.788,244.447,533.394,242.224,600,240" stroke="#7C89A6" stroke-width="2.4"/></g></g><path class="foreground" aria-hidden="true" d="" display="none"/></g></g><g class="mark-symbol role-mark layer_1_layer_0_marks" role="graphics-object" aria-roledescription="symbol mark container"><path aria-label="Period: 2026; Amount: 163; Series: Output" role="graphics-symbol" aria-roledescription="point" transform="translate(600,56.666666666666664)" d="M3.536,0A3.536,3.536,0,1,1,-3.536,0A3.536,3.536,0,1,1,3.536,0" fill="#CE143D" stroke-width="2" opacity="0.7"/><path aria-label="Period: 2026; Amount: 108; Series: Headcount" role="graphics-symbol" aria-roledescription="point" transform="translate(600,240)" d="M3.536,0A3.536,3.536,0,1,1,-3.536,0A3.536,3.536,0,1,1,3.536,0" fill="#7C89A6" stroke-width="2" opacity="0.7"/></g><g class="mark-text role-mark layer_1_layer_1_marks" role="graphics-object" aria-roledescription="text mark container"><text aria-label="Period: 2026; Amount: 163; Series: Output" role="graphics-symbol" aria-roledescription="text mark" text-anchor="start" transform="translate(608,60.666666666666664)" font-family="Segoe UI" font-size="12px" font-weight="600" fill="#CE143D">Output</text><text aria-label="Period: 2026; Amount: 108; Series: Headcount" role="graphics-symbol" aria-roledescription="text mark" text-anchor="start" transform="translate(608,244)" font-family="Segoe UI" font-size="12px" font-weight="600" fill="#7C89A6">Headcount</text></g><g class="mark-group role-legend" role="graphics-symbol" aria-roledescription="legend" aria-label="Symbol legend for fill color and stroke color with 2 values: Output, Headcount"><g transform="translate(0,635)"><path class="background" aria-hidden="true" d="M0,0h192v13h-192Z" pointer-events="none"/><g><g class="mark-group role-legend-entry"><g transform="translate(0,0)"><path class="background" aria-hidden="true" d="M0,0h0v0h0Z" pointer-events="none"/><g><g class="mark-group role-scope" role="graphics-object" aria-roledescription="group mark container"><g transform="translate(0,0.2639320225002102)"><path class="background" aria-hidden="true" d="M0,0h73v12.47213595499958h-73Z" pointer-events="none" opacity="1"/><g><g class="mark-symbol role-legend-symbol" pointer-events="none"><path transform="translate(6,6)" d="M4.472,0A4.472,4.472,0,1,1,-4.472,0A4.472,4.472,0,1,1,4.472,0" fill="#CE143D" stroke="#CE143D" stroke-width="2" opacity="1"/></g><g class="mark-text role-legend-label" pointer-events="none"><text text-anchor="start" transform="translate(16,10)" font-family="Segoe UI" font-size="12px" fill="#3B3A39" opacity="1">Output</text></g></g><path class="foreground" aria-hidden="true" d="" pointer-events="none" display="none"/></g><g transform="translate(90,0.2639320225002102)"><path class="background" aria-hidden="true" d="M0,0h102v12.47213595499958h-102Z" pointer-events="none" opacity="1"/><g><g class="mark-symbol role-legend-symbol" pointer-events="none"><path transform="translate(6,6)" d="M4.472,0A4.472,4.472,0,1,1,-4.472,0A4.472,4.472,0,1,1,4.472,0" fill="#7C89A6" stroke="#7C89A6" stroke-width="2" opacity="1"/></g><g class="mark-text role-legend-label" pointer-events="none"><text text-anchor="start" transform="translate(16,10)" font-family="Segoe UI" font-size="12px" fill="#3B3A39" opacity="1">Headcount</text></g></g><path class="foreground" aria-hidden="true" d="" pointer-events="none" display="none"/></g></g></g><path class="foreground" aria-hidden="true" d="" pointer-events="none" display="none"/></g></g></g><path class="foreground" aria-hidden="true" d="" pointer-events="none" display="none"/></g></g><g class="mark-group role-title"><g transform="translate(-32,-43)"><path class="background" aria-hidden="true" d="M0,0h0v0h0Z" pointer-events="none"/><g><g class="mark-text role-title-text" role="graphics-symbol" aria-roledescription="title" aria-label="Title text 'Headcount and output'" pointer-events="none"><text text-anchor="start" transform="translate(0,12)" font-family="Segoe UI" font-size="15px" font-weight="700" fill="#15223E" opacity="1">Headcount and output</text></g><g class="mark-text role-title-subtitle" role="graphics-symbol" aria-roledescription="subtitle" aria-label="Subtitle text 'Indexed to 2023 = 100'" pointer-events="none"><text text-anchor="start" transform="translate(0,27)" font-family="Segoe UI" font-size="12px" fill="#605E5C" opacity="1">Indexed to 2023 = 100</text></g></g><path class="foreground" aria-hidden="true" d="" pointer-events="none" display="none"/></g></g></g><path class="foreground" aria-hidden="true" d="" display="none"/></g></g></g></svg>